<svg width="40" height="41" viewBox="0 0 40 41" fill="none" xmlns="http://www.w3.org/2000/svg">
<g clip-path="url(#clip0)">
<path d="M20 40.6865C31.0457 40.6865 40 31.7322 40 20.6865C40 9.64083 31.0457 0.686523 20 0.686523C8.9543 0.686523 0 9.64083 0 20.6865C0 31.7322 8.9543 40.6865 20 40.6865Z" fill="#42406C"/>
<path fill-rule="evenodd" clip-rule="evenodd" d="M12.4043 10.6865C13.7302 10.6865 14.806 11.7643 14.806 13.0935C14.806 14.4236 13.7302 15.5022 12.4043 15.5022C11.0732 15.5022 10 14.4227 10 13.0935C10 11.7651 11.0732 10.6865 12.4043 10.6865ZM10.3296 30.6865H14.4781V17.3267H10.3287V30.6865H10.3296ZM17.0779 17.3267H21.0497V19.1537H21.1069C21.6593 18.1033 23.0117 16.9957 25.0275 16.9957C29.2239 16.9957 30 19.7619 30 23.3595V30.6865H25.8549V24.1892C25.8549 22.641 25.8284 20.648 23.7016 20.648C21.5449 20.648 21.2154 22.3357 21.2154 24.0789V30.6865H17.0779V17.3267Z" fill="#FFFFFE"/>
</g>
<defs>
<clipPath id="clip0">
<rect width="40" height="40" fill="white" transform="translate(0 0.686523)"/>
</clipPath>
</defs>
</svg>
