<svg width="40" height="41" viewBox="0 0 40 41" fill="none" xmlns="http://www.w3.org/2000/svg">
<g clip-path="url(#clip0)">
<path d="M20 40.6865C31.0457 40.6865 40 31.7322 40 20.6865C40 9.64083 31.0457 0.686523 20 0.686523C8.9543 0.686523 0 9.64083 0 20.6865C0 31.7322 8.9543 40.6865 20 40.6865Z" fill="#42406C"/>
<path d="M21.4775 30.6865V21.5757H24.44L24.8825 18.0099H21.4775V15.7391C21.4775 14.7074 21.755 14.0091 23.18 14.0091H25V10.8249C24.1225 10.7307 23.2408 10.6849 22.3583 10.6866C19.74 10.6866 17.955 12.3441 17.955 15.3866V18.0099H15V21.5765H17.955V30.6865H21.4775Z" fill="white"/>
</g>
<defs>
<clipPath id="clip0">
<rect width="40" height="40" fill="white" transform="translate(0 0.686523)"/>
</clipPath>
</defs>
</svg>
