<svg width="40" height="41" viewBox="0 0 40 41" fill="none" xmlns="http://www.w3.org/2000/svg">
<path d="M20 40.6865C31.0457 40.6865 40 31.7322 40 20.6865C40 9.64083 31.0457 0.686523 20 0.686523C8.9543 0.686523 0 9.64083 0 20.6865C0 31.7322 8.9543 40.6865 20 40.6865Z" fill="#42406C"/>
<path d="M13.4544 11.2152C12.796 11.4712 12.2392 11.8126 11.6824 12.3694C11.1256 12.9221 10.7842 13.483 10.5282 14.1373C10.2803 14.7713 10.1136 15.4988 10.0649 16.5636C10.0161 17.6284 10.0039 17.9698 10.0039 20.6846C10.0039 23.3995 10.0161 23.7408 10.0649 24.8056C10.1136 25.8705 10.2843 26.5979 10.5282 27.2319C10.7842 27.8903 11.1256 28.4471 11.6824 29.0039C12.2392 29.5607 12.796 29.9021 13.4544 30.1581C14.0884 30.406 14.8158 30.5727 15.8806 30.6214C16.9454 30.6702 17.2868 30.6824 20.0017 30.6824C22.7165 30.6824 23.0579 30.6702 24.1227 30.6214C25.1875 30.5727 25.915 30.402 26.549 30.1581C27.2074 29.9021 27.7642 29.5607 28.3209 29.0039C28.8777 28.4471 29.2191 27.8903 29.4752 27.2319C29.7231 26.5979 29.8897 25.8705 29.9385 24.8056C29.9872 23.7408 29.9994 23.3995 29.9994 20.6846C29.9994 17.9698 29.9872 17.6284 29.9385 16.5636C29.8897 15.4988 29.719 14.7713 29.4752 14.1373C29.2191 13.483 28.8777 12.9221 28.325 12.3694C27.7682 11.8126 27.2114 11.4712 26.5531 11.2152C25.919 10.9673 25.1916 10.8006 24.1268 10.7519C23.062 10.7031 22.7206 10.6909 20.0057 10.6909C17.2909 10.6909 16.9495 10.7031 15.8847 10.7519C14.8158 10.7966 14.0884 10.9673 13.4544 11.2152ZM24.0414 12.5482C25.0168 12.5929 25.5451 12.7555 25.8987 12.8937C26.3661 13.0766 26.6994 13.292 27.0489 13.6415C27.3984 13.991 27.6138 14.3243 27.7967 14.7916C27.9349 15.1452 28.0974 15.6735 28.1421 16.6489C28.1909 17.7015 28.199 18.0185 28.199 20.6887C28.199 23.3588 28.1868 23.6758 28.1421 24.7284C28.0974 25.7038 27.9349 26.2322 27.7967 26.5857C27.6138 27.0531 27.3984 27.3864 27.0489 27.7359C26.6994 28.0854 26.3661 28.3008 25.8987 28.4837C25.5451 28.6219 25.0168 28.7844 24.0414 28.8291C22.9888 28.8779 22.6718 28.886 20.0017 28.886C17.3315 28.886 17.0145 28.8738 15.9619 28.8291C14.9865 28.7844 14.4582 28.6219 14.1046 28.4837C13.6372 28.3008 13.304 28.0854 12.9545 27.7359C12.605 27.3864 12.3896 27.0531 12.2067 26.5857C12.0685 26.2322 11.9059 25.7038 11.8612 24.7284C11.8124 23.6758 11.8043 23.3588 11.8043 20.6887C11.8043 18.0185 11.8165 17.7015 11.8612 16.6489C11.9059 15.6735 12.0685 15.1452 12.2067 14.7916C12.3896 14.3243 12.605 13.991 12.9545 13.6415C13.304 13.292 13.6372 13.0766 14.1046 12.8937C14.4582 12.7555 14.9865 12.5929 15.9619 12.5482C17.0145 12.4995 17.3315 12.4913 20.0017 12.4913C22.6718 12.4913 22.9888 12.4995 24.0414 12.5482Z" fill="white"/>
<path d="M14.8691 20.6887C14.8691 23.5254 17.1694 25.8217 20.0021 25.8217C22.8348 25.8217 25.1351 23.5214 25.1351 20.6887C25.1351 17.856 22.8389 15.5557 20.0021 15.5557C17.1654 15.5557 14.8691 17.8519 14.8691 20.6887ZM23.3347 20.6887C23.3347 22.5297 21.8432 24.0213 20.0021 24.0213C18.1611 24.0213 16.6696 22.5297 16.6696 20.6887C16.6696 18.8476 18.1611 17.3561 20.0021 17.3561C21.8432 17.3561 23.3347 18.8476 23.3347 20.6887Z" fill="white"/>
<path d="M25.3415 16.5516C26.0036 16.5516 26.5404 16.0149 26.5404 15.3527C26.5404 14.6906 26.0036 14.1538 25.3415 14.1538C24.6794 14.1538 24.1426 14.6906 24.1426 15.3527C24.1426 16.0149 24.6794 16.5516 25.3415 16.5516Z" fill="white"/>
</svg>
