<svg width="40" height="36" viewBox="0 0 40 36" fill="none" xmlns="http://www.w3.org/2000/svg">
<path opacity="0.5" d="M25.1168 15.675L25.1168 -1.26544e-06L39.5918 0L39.5918 12.375C39.5918 19.075 38.7918 23.925 37.1918 26.925C35.0918 30.925 31.7668 33.95 27.2168 36L23.9168 30.75C26.6668 29.6 28.6918 27.875 29.9918 25.575C31.2918 23.325 32.0168 20.025 32.1668 15.675L25.1168 15.675ZM1.8668 15.675L1.8668 -3.29802e-06L16.3418 -2.03258e-06L16.3418 12.375C16.3418 19.075 15.5418 23.925 13.9418 26.925C11.8418 30.925 8.5168 33.95 3.9668 36L0.666798 30.75C3.4168 29.6 5.4418 27.875 6.7418 25.575C8.0418 23.325 8.7668 20.025 8.9168 15.675L1.8668 15.675Z" fill="white"/>
</svg>
