<svg width="40" height="36" viewBox="0 0 40 36" fill="none" xmlns="http://www.w3.org/2000/svg">
<path opacity="0.5" d="M15.0668 20.325V36H0.591797V23.625C0.591797 16.925 1.3918 12.075 2.9918 9.075C5.0918 5.075 8.4168 2.05 12.9668 0L16.2668 5.25C13.5168 6.4 11.4918 8.125 10.1918 10.425C8.8918 12.675 8.1668 15.975 8.0168 20.325H15.0668ZM38.3168 20.325V36H23.8418V23.625C23.8418 16.925 24.6418 12.075 26.2418 9.075C28.3418 5.075 31.6668 2.05 36.2168 0L39.5168 5.25C36.7668 6.4 34.7418 8.125 33.4418 10.425C32.1418 12.675 31.4168 15.975 31.2668 20.325H38.3168Z" fill="white"/>
</svg>
