<svg width="40" height="41" viewBox="0 0 40 41" fill="none" xmlns="http://www.w3.org/2000/svg">
<g clip-path="url(#clip0)">
<path d="M20 40.6865C31.0457 40.6865 40 31.7322 40 20.6865C40 9.64083 31.0457 0.686523 20 0.686523C8.9543 0.686523 0 9.64083 0 20.6865C0 31.7322 8.9543 40.6865 20 40.6865Z" fill="#42406C"/>
<path d="M16.2825 29.9365C23.8292 29.9365 27.9592 23.6832 27.9592 18.269C27.9592 18.0932 27.9592 17.9174 27.9508 17.7407C28.7508 17.1657 29.4475 16.4374 30 15.614C29.2633 15.9415 28.4717 16.1574 27.6392 16.2615C28.4875 15.7574 29.1358 14.9499 29.4475 13.9907C28.6558 14.4624 27.775 14.7982 26.8392 14.9824C26.0867 14.1824 25.0225 13.6865 23.8458 13.6865C21.5808 13.6865 19.74 15.5257 19.74 17.789C19.74 18.109 19.78 18.4207 19.8442 18.7249C16.4342 18.5565 13.4092 16.9174 11.3842 14.4382C11.0325 15.0465 10.8325 15.7499 10.8325 16.5015C10.8325 17.9249 11.5608 19.1807 12.6575 19.9165C11.985 19.8915 11.3525 19.7082 10.8 19.404V19.4607C10.8 21.444 12.2167 23.1074 14.09 23.4832C13.7458 23.579 13.385 23.6265 13.0092 23.6265C12.745 23.6265 12.4892 23.6032 12.2408 23.5549C12.7608 25.1865 14.2825 26.3699 16.0742 26.4015C14.6658 27.5057 12.8975 28.1615 10.9767 28.1615C10.6483 28.1615 10.32 28.1449 10 28.1049C11.8083 29.2565 13.97 29.9365 16.2825 29.9365Z" fill="white"/>
</g>
<defs>
<clipPath id="clip0">
<rect width="40" height="40" fill="white" transform="translate(0 0.686523)"/>
</clipPath>
</defs>
</svg>
