<svg width="3795" height="546" viewBox="0 0 3795 546" fill="none" xmlns="http://www.w3.org/2000/svg">
    <mask id="mask0" mask-type="alpha" maskUnits="userSpaceOnUse" x="1101" y="0" width="2084" height="351">
        <rect width="2084" height="351" transform="matrix(-1 0 0 1 3185 0)" fill="#696969"/>
    </mask>
    <g mask="url(#mask0)">
        <ellipse rx="195.006" ry="200.457" transform="matrix(-1 0 0 1 2615.98 496.437)" fill="#E4071A" fill-opacity="0.04"/>
        <ellipse rx="195.006" ry="200.457" transform="matrix(-1 0 0 1 2389.16 457.967)" fill="#E4071A" fill-opacity="0.04"/>
        <ellipse rx="195.006" ry="200.457" transform="matrix(-1 0 0 1 2180.99 514.895)" fill="#E4071A" fill-opacity="0.04"/>
        <ellipse rx="195.006" ry="200.457" transform="matrix(-1 0 0 1 2818.73 478.781)" fill="#E4071A" fill-opacity="0.04"/>
    </g>
    <rect width="3795" height="195" transform="matrix(-1 0 0 1 3795 351)" fill="url(#paint2_linear)" fill-opacity="0.56"/>
    <path d="M2607 546L2593.23 352H2481.14L1817 546H2607Z" fill="white"/>
    <defs>
        <linearGradient id="paint0_angular" cx="0" cy="0" r="1" gradientUnits="userSpaceOnUse" gradientTransform="translate(1897.5 97.5) rotate(90) scale(97.5 1897.5)">
            <stop stop-color="#E3EFFF"/>
        </linearGradient>
        <linearGradient id="paint2_linear" x1="0%" y1="0%" x2="0%" y2="100%" spreadMethod="pad">
            <stop offset="0%" stop-color="white"/>
            <stop offset="60%" stop-color="#E3EFFF"/>
        </linearGradient>
    </defs>
</svg>
