<svg width="40" height="40" viewBox="0 0 40 40" fill="none" xmlns="http://www.w3.org/2000/svg">
<path d="M19.5693 9.16992C16.8939 9.23809 14.3544 10.3632 12.5065 12.2992C10.6587 14.2351 9.65288 16.8242 9.70928 19.4999C9.70928 22.7399 11.8393 26.4999 15.0193 29.1299H19.5793L16.8893 19.5099C17.146 19.6418 17.4306 19.7104 17.7193 19.7099C17.9862 19.7088 18.2498 19.6513 18.4928 19.5409C18.7359 19.4306 18.9528 19.2701 19.1293 19.0699C19.3493 18.8599 19.4093 18.8199 19.5693 18.8199C19.7293 18.8199 19.7993 18.8199 20.0193 19.0699C20.1958 19.2701 20.4127 19.4306 20.6557 19.5409C20.8988 19.6513 21.1624 19.7088 21.4293 19.7099C21.7179 19.7104 22.0025 19.6418 22.2593 19.5099L19.5793 29.1299H24.1293C27.3093 26.5099 29.4393 22.7399 29.4393 19.4999C29.4957 16.8225 28.4885 14.232 26.6385 12.2957C24.7885 10.3595 22.2465 9.23548 19.5693 9.16992V9.16992Z" stroke="#B4C6DE" stroke-width="2.25" stroke-linecap="round" stroke-linejoin="round"/>
<path d="M36.4494 18.55H32.3594" stroke="#B4C6DE" stroke-width="2.25" stroke-linecap="round" stroke-linejoin="round"/>
<path d="M32.3295 5.84009L29.4395 8.73009" stroke="#B4C6DE" stroke-width="2.25" stroke-linecap="round" stroke-linejoin="round"/>
<path d="M19.5801 6.37003V2.28003" stroke="#B4C6DE" stroke-width="2.25" stroke-linecap="round" stroke-linejoin="round"/>
<path d="M2.69922 18.55H6.78922" stroke="#B4C6DE" stroke-width="2.25" stroke-linecap="round" stroke-linejoin="round"/>
<path d="M6.82031 5.84009L9.71031 8.73009" stroke="#B4C6DE" stroke-width="2.25" stroke-linecap="round" stroke-linejoin="round"/>
<path d="M16.2207 32.1001H22.9307" stroke="#B4C6DE" stroke-width="2.25" stroke-linecap="round" stroke-linejoin="round"/>
<path d="M16.2207 34.8701H22.9307" stroke="#B4C6DE" stroke-width="2.25" stroke-linecap="round" stroke-linejoin="round"/>
<path d="M17.8301 37.5601H21.3201" stroke="#B4C6DE" stroke-width="2.25" stroke-linecap="round" stroke-linejoin="round"/>
</svg>
