<svg width="40" height="40" viewBox="0 0 40 40" fill="none" xmlns="http://www.w3.org/2000/svg">
<path d="M24.28 31.74L23.11 33.64H16.89L15.72 31.74H2C2 33.2862 2.61423 34.7691 3.70757 35.8624C4.8009 36.9558 6.28379 37.57 7.83 37.57H32.21C33.7493 37.5594 35.2219 36.9405 36.3066 35.8483C37.3913 34.7562 38 33.2793 38 31.74H24.28Z" stroke="#B4C6DE" stroke-width="2.25" stroke-linecap="round" stroke-linejoin="round"/>
<path d="M4.56055 31.74V18.34C4.56055 17.9236 4.72596 17.5243 5.02039 17.2299C5.31482 16.9354 5.71416 16.77 6.13055 16.77H13.0005" stroke="#B4C6DE" stroke-width="2.25" stroke-linecap="round" stroke-linejoin="round"/>
<path d="M26.7598 16.77H33.6098C34.0262 16.77 34.4255 16.9354 34.7199 17.2299C35.0144 17.5243 35.1798 17.9236 35.1798 18.34V31.74" stroke="#B4C6DE" stroke-width="2.25" stroke-linecap="round" stroke-linejoin="round"/>
<path d="M20.1505 5.26993C21.0728 5.26993 21.8205 4.52225 21.8205 3.59993C21.8205 2.67762 21.0728 1.92993 20.1505 1.92993C19.2282 1.92993 18.4805 2.67762 18.4805 3.59993C18.4805 4.52225 19.2282 5.26993 20.1505 5.26993Z" stroke="#B4C6DE" stroke-width="2.25" stroke-linecap="round" stroke-linejoin="round"/>
<path d="M29.0391 13.9899C29.9615 13.9899 30.7091 13.2422 30.7091 12.3199C30.7091 11.3976 29.9615 10.6499 29.0391 10.6499C28.1168 10.6499 27.3691 11.3976 27.3691 12.3199C27.3691 13.2422 28.1168 13.9899 29.0391 13.9899Z" stroke="#B4C6DE" stroke-width="2.25" stroke-linecap="round" stroke-linejoin="round"/>
<path d="M11.2598 11.31C12.1822 11.31 12.9298 10.5623 12.9298 9.63997C12.9298 8.71766 12.1822 7.96997 11.2598 7.96997C10.3375 7.96997 9.58984 8.71766 9.58984 9.63997C9.58984 10.5623 10.3375 11.31 11.2598 11.31Z" stroke="#B4C6DE" stroke-width="2.25" stroke-linecap="round" stroke-linejoin="round"/>
<path d="M13.4297 27.8401H27.3697" stroke="#B4C6DE" stroke-width="2.25" stroke-linecap="round" stroke-linejoin="round"/>
<path d="M12.9395 9.62988H16.6695V27.8399" stroke="#B4C6DE" stroke-width="2.25" stroke-linecap="round" stroke-linejoin="round"/>
<path d="M20.1504 5.28003V27.84" stroke="#B4C6DE" stroke-width="2.25" stroke-linecap="round" stroke-linejoin="round"/>
<path d="M27.3708 12.3201H23.3008V27.8401" stroke="#B4C6DE" stroke-width="2.25" stroke-linecap="round" stroke-linejoin="round"/>
</svg>
