<svg width="40" height="40" viewBox="0 0 40 40" fill="none" xmlns="http://www.w3.org/2000/svg">
<path d="M20.0502 8.16993C21.6927 8.16795 23.2988 8.65331 24.6652 9.56456C26.0317 10.4758 27.0971 11.772 27.7265 13.289C28.356 14.8061 28.5212 16.4757 28.2012 18.0867C27.8813 19.6977 27.0906 21.1775 25.9292 22.3389C24.7678 23.5003 23.288 24.291 21.677 24.6109C20.0661 24.9309 18.3964 24.7657 16.8793 24.1362C15.3623 23.5068 14.0661 22.4414 13.1549 21.0749C12.2436 19.7085 11.7583 18.1024 11.7602 16.4599C11.7602 14.2613 12.6336 12.1527 14.1883 10.598C15.743 9.04333 17.8516 8.16993 20.0502 8.16993ZM20.0502 5.91993C17.9628 5.91795 15.9217 6.53527 14.1852 7.69375C12.4487 8.85224 11.095 10.4998 10.2952 12.428C9.49548 14.3562 9.28571 16.4782 9.69247 18.5257C10.0992 20.5731 11.1042 22.4539 12.5803 23.9299C14.0563 25.4059 15.9371 26.4109 17.9845 26.8177C20.0319 27.2244 22.154 27.0147 24.0822 26.2149C26.0103 25.4152 27.6579 24.0614 28.8164 22.325C29.9749 20.5885 30.5922 18.5474 30.5902 16.4599C30.5876 13.6654 29.4763 10.986 27.5002 9.00994C25.5242 7.03389 22.8448 5.92257 20.0502 5.91993Z" fill="#B4C6DE"/>
<path d="M18.6699 8.16992L28.4499 17.9499" stroke="#B4C6DE" stroke-width="2.25" stroke-linecap="round" stroke-linejoin="round"/>
<path d="M13.9805 10.3899L26.0505 22.4599" stroke="#B4C6DE" stroke-width="2.25" stroke-linecap="round" stroke-linejoin="round"/>
<path d="M11.6309 14.95L21.4709 24.79" stroke="#B4C6DE" stroke-width="2.25" stroke-linecap="round" stroke-linejoin="round"/>
<path d="M22.8114 19.2263C26.0489 15.9888 27.4355 12.1265 25.9085 10.5996C24.3816 9.0726 20.5193 10.4592 17.2818 13.6967C14.0444 16.9341 12.6578 20.7964 14.1847 22.3234C15.7117 23.8503 19.574 22.4637 22.8114 19.2263Z" stroke="#B4C6DE" stroke-width="2.25" stroke-linecap="round" stroke-linejoin="round"/>
<path d="M12.6005 28.6301H1.81055V4.32007H38.2705V28.6301H32.4105H21.9405L12.6005 36.0701V28.6301Z" stroke="#B4C6DE" stroke-width="2.25" stroke-linecap="round" stroke-linejoin="round"/>
</svg>
