<svg width="40" height="40" viewBox="0 0 40 40" fill="none" xmlns="http://www.w3.org/2000/svg">
<path d="M21.9295 30.43H4.05946C3.41313 30.43 2.79297 30.1746 2.33408 29.7195C1.87518 29.2644 1.61473 28.6463 1.60946 28V8.47C1.60682 8.14658 1.66824 7.82584 1.79018 7.52628C1.91212 7.22672 2.09217 6.95427 2.31994 6.72465C2.5477 6.49502 2.81868 6.31276 3.11724 6.18839C3.4158 6.06402 3.73603 5.99999 4.05946 6H30.9995C31.6492 6 32.2724 6.25812 32.7319 6.71759C33.1913 7.17705 33.4495 7.80022 33.4495 8.45V17.24" stroke="#B4C6DE" stroke-width="2.25" stroke-linecap="round" stroke-linejoin="round"/>
<path d="M3.55078 29.46L13.3308 15.72L18.5308 22.4L22.0008 19.25L24.7506 21.9998" stroke="#B4C6DE" stroke-width="2.25" stroke-linecap="round" stroke-linejoin="round"/>
<path d="M24.5597 16.07C24.1551 16.07 23.7595 15.9502 23.4229 15.7258C23.0862 15.5014 22.8234 15.1824 22.6677 14.809C22.512 14.4356 22.4702 14.0244 22.5477 13.6273C22.6252 13.2302 22.8185 12.8649 23.1032 12.5775C23.3879 12.29 23.7513 12.0932 24.1476 12.0118C24.5439 11.9305 24.9555 11.9682 25.3304 12.1203C25.7053 12.2724 26.0269 12.5321 26.2545 12.8666C26.4821 13.201 26.6057 13.5954 26.6097 14C26.6123 14.2709 26.5612 14.5396 26.4594 14.7906C26.3576 15.0416 26.207 15.27 26.0164 15.4625C25.8257 15.655 25.5988 15.8078 25.3488 15.912C25.0988 16.0163 24.8306 16.07 24.5597 16.07V16.07Z" stroke="#B4C6DE" stroke-width="2.25" stroke-miterlimit="10"/>
<path d="M32.4896 21.23C33.655 21.23 34.7941 21.5757 35.763 22.2233C36.7318 22.871 37.4867 23.7915 37.9322 24.8683C38.3777 25.9451 38.4938 27.1299 38.2657 28.2727C38.0376 29.4156 37.4757 30.465 36.6509 31.2884C35.8262 32.1117 34.7758 32.6719 33.6326 32.898C32.4893 33.1242 31.3048 33.0061 30.2287 32.5588C29.1526 32.1114 28.2334 31.3549 27.5874 30.385C26.9414 29.4151 26.5976 28.2753 26.5996 27.11V25.73" stroke="#B4C6DE" stroke-width="2.25" stroke-linecap="round" stroke-linejoin="round"/>
<path d="M24.8496 27.24L26.6196 25.47L28.3896 27.24" stroke="#B4C6DE" stroke-width="2.25" stroke-linecap="round" stroke-linejoin="round"/>
</svg>
