<svg width="40" height="40" viewBox="0 0 40 40" fill="none" xmlns="http://www.w3.org/2000/svg">
<path d="M5.39 36.1499H34.6C35.0366 36.1453 35.4681 36.0546 35.8696 35.883C36.2711 35.7114 36.6349 35.4623 36.94 35.1499C37.5678 34.5275 37.9268 33.6839 37.94 32.7999V6.27994C37.9311 5.39507 37.5715 4.54987 36.94 3.92994C36.6304 3.62843 36.2644 3.39105 35.8628 3.23145C35.4612 3.07185 35.0321 2.99318 34.6 2.99994H5.39C4.94965 2.98705 4.5112 3.06273 4.10065 3.22248C3.6901 3.38223 3.31582 3.62281 3 3.92994C2.68688 4.23658 2.43736 4.602 2.26576 5.00527C2.09415 5.40853 2.00384 5.8417 2 6.27994V32.8299C2.01211 33.7141 2.37126 34.5581 3 35.1799C3.31385 35.4924 3.68689 35.7392 4.09727 35.9057C4.50765 36.0723 4.94714 36.1553 5.39 36.1499Z" stroke="#B4C6DE" stroke-width="2.25" stroke-miterlimit="10"/>
<path d="M25.1406 6.3501H26.8006" stroke="#B4C6DE" stroke-width="2.25" stroke-linecap="round" stroke-linejoin="round"/>
<path d="M30.4902 6.3501H34.1802" stroke="#B4C6DE" stroke-width="2.25" stroke-linecap="round" stroke-linejoin="round"/>
<path d="M2.07031 9.6001H37.9203" stroke="#B4C6DE" stroke-width="2.25" stroke-miterlimit="10"/>
<path d="M14.8496 20.8401C14.8496 21.901 15.271 22.9184 16.0212 23.6685C16.7713 24.4187 17.7887 24.8401 18.8496 24.8401" stroke="#B4C6DE" stroke-width="2.25" stroke-linecap="round" stroke-linejoin="round"/>
<path d="M18.8596 28.1001C22.8692 28.1001 26.1196 24.8497 26.1196 20.8401C26.1196 16.8305 22.8692 13.5801 18.8596 13.5801C14.85 13.5801 11.5996 16.8305 11.5996 20.8401C11.5996 24.8497 14.85 28.1001 18.8596 28.1001Z" stroke="#B4C6DE" stroke-width="2.25" stroke-miterlimit="10"/>
<path d="M23.2598 26.6001L28.3898 31.7401" stroke="#B4C6DE" stroke-width="2.25" stroke-linecap="round" stroke-linejoin="round"/>
</svg>
