<svg width="40" height="40" viewBox="0 0 40 40" fill="none" xmlns="http://www.w3.org/2000/svg">
<path d="M9.38086 18.0499V6.22991C9.38351 5.14956 9.81453 4.11437 10.5794 3.35138C11.3443 2.58839 12.3805 2.15991 13.4609 2.15991H26.1009C27.1803 2.15991 28.2155 2.58871 28.9788 3.35199C29.7421 4.11526 30.1709 5.15048 30.1709 6.22991V10.7699" stroke="#B4C6DE" stroke-width="2.25" stroke-miterlimit="10"/>
<path d="M30.1709 18.54V34.33C30.1709 35.4095 29.7421 36.4447 28.9788 37.208C28.2155 37.9712 27.1803 38.4 26.1009 38.4H13.4609C12.3805 38.4 11.3443 37.9716 10.5794 37.2086C9.81453 36.4456 9.38351 35.4104 9.38086 34.33V25.81" stroke="#B4C6DE" stroke-width="2.25" stroke-miterlimit="10"/>
<path d="M9.38086 6.22998H30.1709" stroke="#B4C6DE" stroke-width="2.25" stroke-miterlimit="10"/>
<path d="M9.38086 32.2H30.1709" stroke="#B4C6DE" stroke-width="2.25" stroke-miterlimit="10"/>
<path d="M25.5691 18.54H22.1191V10.77H33.7691V18.54H31.8891H28.5491L25.5691 20.91V18.54Z" stroke="#B4C6DE" stroke-width="2.25" stroke-linecap="round" stroke-linejoin="round"/>
<path d="M14.3699 25.81H17.8199V18.05H6.16992V25.81H8.04992H11.3899L14.3699 28.1901V25.81Z" stroke="#B4C6DE" stroke-width="2.25" stroke-linecap="round" stroke-linejoin="round"/>
</svg>
