<svg width="77" height="75" viewBox="0 0 77 75" fill="none" xmlns="http://www.w3.org/2000/svg">
<path fill-rule="evenodd" clip-rule="evenodd" d="M39.5492 25.707C39.5492 36.6282 30.6958 45.4816 19.7746 45.4816C14.3851 45.4816 9.49922 43.3255 5.93238 39.8289V74.9457H0V25.707C0 14.7858 8.85339 5.93237 19.7746 5.93237C30.6958 5.93237 39.5492 14.7858 39.5492 25.707ZM19.7746 39.5492C12.1297 39.5492 5.93238 33.3518 5.93238 25.707C5.93238 18.0621 12.1297 11.8648 19.7746 11.8648C27.4194 11.8648 33.6168 18.0621 33.6168 25.707C33.6168 33.3518 27.4194 39.5492 19.7746 39.5492Z" fill="#42406C"/>
<path fill-rule="evenodd" clip-rule="evenodd" d="M76.7254 25.707C76.7254 36.6282 67.872 45.4816 56.9508 45.4816C44.1137 45.4816 37.1762 36.6282 37.1762 25.707C37.1762 14.7858 46.0296 5.93237 56.9508 5.93237C67.872 5.93237 76.7254 14.7858 76.7254 25.707ZM56.9508 39.5492C49.306 39.5492 43.1086 33.3518 43.1086 25.707C43.1086 18.0621 49.306 11.8648 56.9508 11.8648C64.5956 11.8648 70.793 18.0621 70.793 25.707C70.793 33.3518 64.5956 39.5492 56.9508 39.5492Z" fill="#42406C"/>
<path d="M76.7254 5.93238H0L0 0L76.7254 0V5.93238Z" fill="#42406C"/>
<path d="M2 26H36.0123C36.0123 26 28.0564 43.0281 18.6107 42.8084C9.38457 42.5938 2 26 2 26Z" fill="#42406C"/>
<path d="M39.1763 26H73.1886C73.1886 26 65.2326 43.0281 55.7869 42.8084C46.5608 42.5938 39.1763 26 39.1763 26Z" fill="#42406C"/>
</svg>
