<svg width="40" height="40" viewBox="0 0 40 40" fill="none" xmlns="http://www.w3.org/2000/svg">
<path d="M38.4502 8.63989H1.49023V34.5099H38.4502V8.63989Z" stroke="#B4C6DE" stroke-width="2.25" stroke-linecap="round" stroke-linejoin="round"/>
<path d="M13.2598 8.64004V4.04004H26.6798V8.64004" stroke="#B4C6DE" stroke-width="2.25" stroke-linecap="round" stroke-linejoin="round"/>
<path d="M16.3002 19.6399H7.79024C6.96207 19.6399 6.14203 19.4766 5.37702 19.1594C4.61202 18.8421 3.91707 18.3772 3.33193 17.7911C2.74679 17.2051 2.28294 16.5094 1.96693 15.7439C1.65091 14.9784 1.48893 14.1581 1.49024 13.3299V8.63989H38.4902V13.3299C38.4916 14.1589 38.3292 14.98 38.0126 15.7462C37.696 16.5123 37.2312 17.2085 36.645 17.7947C36.0588 18.3809 35.3627 18.8456 34.5965 19.1623C33.8304 19.4789 33.0093 19.6412 32.1802 19.6399H23.5102" stroke="#B4C6DE" stroke-width="2.25" stroke-linecap="round" stroke-linejoin="round"/>
<path d="M23.5097 17.3401H16.4297V21.9401H23.5097V17.3401Z" stroke="#B4C6DE" stroke-width="2.25" stroke-linecap="round" stroke-linejoin="round"/>
</svg>
