<svg width="40" height="40" viewBox="0 0 40 40" fill="none" xmlns="http://www.w3.org/2000/svg">
<path d="M27.3802 26.9999V38.3699H1.49023V1.62988H27.3802V17.9199" stroke="#B4C6DE" stroke-width="2.25" stroke-linecap="round" stroke-linejoin="round"/>
<path d="M7.32031 7.86011H21.5403" stroke="#B4C6DE" stroke-width="2.25" stroke-linecap="round" stroke-linejoin="round"/>
<path d="M7.32031 13.9299H21.5403" stroke="#B4C6DE" stroke-width="2.25" stroke-linecap="round" stroke-linejoin="round"/>
<path d="M7.32031 20H21.5403" stroke="#B4C6DE" stroke-width="2.25" stroke-linecap="round" stroke-linejoin="round"/>
<path d="M7.32031 26.0701H19.5403" stroke="#B4C6DE" stroke-width="2.25" stroke-linecap="round" stroke-linejoin="round"/>
<path d="M7.32031 32.1399H12.5003" stroke="#B4C6DE" stroke-width="2.25" stroke-linecap="round" stroke-linejoin="round"/>
<path d="M36.3541 17.5328L32.4297 13.6084L18.337 27.701L22.2615 31.6255L36.3541 17.5328Z" stroke="#B4C6DE" stroke-width="2.25" stroke-linecap="round" stroke-linejoin="round"/>
<path d="M36.1324 11.8452L38.1193 13.8322C38.3762 14.0891 38.5206 14.4376 38.5206 14.801C38.5206 15.1643 38.3762 15.5128 38.1193 15.7697L36.3586 17.5304L32.4483 13.6201L34.202 11.8665C34.4558 11.6088 34.8012 11.4621 35.1628 11.4581C35.5244 11.4541 35.8729 11.5933 36.1324 11.8452V11.8452Z" stroke="#B4C6DE" stroke-width="2.25" stroke-linecap="round" stroke-linejoin="round"/>
<path d="M16.8203 33.1399L18.3303 27.7L22.2603 31.6299L16.8203 33.1399Z" stroke="#B4C6DE" stroke-width="2.25" stroke-linecap="round" stroke-linejoin="round"/>
</svg>
