<svg width="40" height="40" viewBox="0 0 40 40" fill="none" xmlns="http://www.w3.org/2000/svg">
<path d="M26.5705 2.27002C28.4093 3.32037 30.0224 4.7238 31.317 6.39963C32.6116 8.07546 33.5623 9.99065 34.1143 12.0351C34.6663 14.0795 34.8087 16.2129 34.5335 18.3126C34.2583 20.4123 33.5707 22.4369 32.5105 24.27C31.0885 26.6969 29.0673 28.7181 26.6405 30.14C24.1243 31.4704 21.3266 32.1801 18.4805 32.21C15.6722 32.2111 12.9131 31.4731 10.4805 30.07" stroke="#B4C6DE" stroke-width="2.25" stroke-miterlimit="10" stroke-linecap="round"/>
<path d="M19.8594 37.19V32.24" stroke="#B4C6DE" stroke-width="2.25" stroke-miterlimit="10" stroke-linecap="round"/>
<path d="M14.8105 37.6699H24.9105" stroke="#B4C6DE" stroke-width="2.25" stroke-miterlimit="10" stroke-linecap="round"/>
<path d="M17.92 5.23999C20.0303 5.23999 22.0933 5.86578 23.8479 7.03821C25.6026 8.21064 26.9702 9.87707 27.7778 11.8268C28.5854 13.7764 28.7967 15.9218 28.385 17.9916C27.9733 20.0614 26.9571 21.9626 25.4648 23.4548C23.9726 24.947 22.0714 25.9633 20.0016 26.375C17.9318 26.7867 15.7865 26.5754 13.8368 25.7678C11.8871 24.9602 10.2207 23.5926 9.04823 21.8379C7.87579 20.0833 7.25001 18.0203 7.25001 15.91C7.25001 13.0801 8.37416 10.3662 10.3752 8.36516C12.3762 6.36415 15.0901 5.23999 17.92 5.23999ZM17.92 2.98999C15.3647 2.98999 12.8667 3.74774 10.742 5.1674C8.61736 6.58707 6.96137 8.6049 5.98348 10.9657C5.0056 13.3265 4.74974 15.9243 5.24826 18.4306C5.74678 20.9368 6.97729 23.2389 8.78419 25.0458C10.5911 26.8527 12.8932 28.0832 15.3994 28.5817C17.9057 29.0803 20.5035 28.8244 22.8643 27.8465C25.2251 26.8686 27.2429 25.2126 28.6626 23.088C30.0823 20.9633 30.84 18.4653 30.84 15.91C30.8347 12.4859 29.4715 9.20379 27.0494 6.78356C24.6273 4.36332 21.3441 3.00263 17.92 2.99999V2.98999Z" fill="#B4C6DE"/>
<path d="M16.1406 5.23999L28.7306 17.82" stroke="#B4C6DE" stroke-width="2.25" stroke-linecap="round" stroke-linejoin="round"/>
<path d="M10.1094 8.1001L25.6394 23.6301" stroke="#B4C6DE" stroke-width="2.25" stroke-linecap="round" stroke-linejoin="round"/>
<path d="M7.08008 13.97L19.7501 26.63" stroke="#B4C6DE" stroke-width="2.25" stroke-linecap="round" stroke-linejoin="round"/>
<path d="M21.4786 19.4654C25.6455 15.2985 27.4311 10.3282 25.4667 8.36382C23.5024 6.39948 18.532 8.18501 14.3651 12.3519C10.1982 16.5188 8.41272 21.4891 10.3771 23.4535C12.3414 25.4178 17.3117 23.6323 21.4786 19.4654Z" stroke="#B4C6DE" stroke-width="2.25" stroke-linecap="round" stroke-linejoin="round"/>
</svg>
