<svg width="40" height="40" viewBox="0 0 40 40" fill="none" xmlns="http://www.w3.org/2000/svg">
<path d="M25.3802 20.07C25.3802 18.8695 25.0242 17.6959 24.3573 16.6977C23.6903 15.6995 22.7423 14.9215 21.6331 14.4621C20.524 14.0026 19.3035 13.8824 18.126 14.1166C16.9486 14.3508 15.867 14.929 15.0181 15.7779C14.1692 16.6268 13.5911 17.7083 13.3569 18.8858C13.1227 20.0633 13.2429 21.2837 13.7023 22.3929C14.1617 23.502 14.9397 24.45 15.9379 25.117C16.9361 25.784 18.1097 26.14 19.3102 26.14C20.9201 26.14 22.464 25.5005 23.6024 24.3621C24.7407 23.2238 25.3802 21.6799 25.3802 20.07V20.07Z" stroke="#B4C6DE" stroke-width="2.25" stroke-miterlimit="10"/>
<path d="M22.9998 33.15L23.5698 32.98C24.2377 32.7592 24.8892 32.4919 25.5198 32.18L26.0398 31.93C26.0861 31.8959 26.1422 31.8775 26.1998 31.8775C26.2573 31.8775 26.3134 31.8959 26.3598 31.93L29.9598 34.32L33.5898 30.66L31.2698 27.2C31.2341 27.1543 31.2147 27.098 31.2147 27.04C31.2147 26.982 31.2341 26.9257 31.2698 26.88L31.5298 26.42C31.8914 25.7351 32.199 25.0229 32.4498 24.29L32.6398 23.72C32.6542 23.6668 32.6834 23.6187 32.7242 23.5815C32.7649 23.5443 32.8154 23.5195 32.8698 23.51L36.8698 22.71V17.52L32.8698 16.68C32.817 16.6745 32.767 16.6535 32.7261 16.6197C32.6852 16.5859 32.6552 16.5408 32.6398 16.49L32.4498 15.91C32.2084 15.1912 31.9039 14.4952 31.5398 13.83L31.2498 13.27C31.2398 13.2239 31.2398 13.1762 31.2498 13.13C31.2485 13.071 31.27 13.0137 31.3098 12.97L33.6098 9.51003L29.9998 5.85003L26.3998 8.25003C26.3515 8.27913 26.2962 8.29451 26.2398 8.29451C26.1834 8.29451 26.1281 8.27913 26.0798 8.25003L25.5598 8.00003C24.9184 7.67134 24.2491 7.40028 23.5598 7.19003L22.9998 7.00003C22.9433 6.98664 22.8921 6.9566 22.8529 6.91382C22.8137 6.87103 22.7882 6.81746 22.7798 6.76003L21.9198 2.53003H16.7298L15.8698 6.80003C15.8601 6.85697 15.8342 6.9099 15.7952 6.95247C15.7561 6.99504 15.7056 7.02545 15.6498 7.04003L15.0798 7.23003C14.4173 7.43593 13.772 7.69339 13.1498 8.00003L12.5998 8.26003C12.5536 8.28455 12.5021 8.29736 12.4498 8.29736C12.3975 8.29736 12.346 8.28455 12.2998 8.26003L8.69977 5.83003L5.06977 9.48003L7.35977 12.91C7.37985 12.9615 7.37985 13.0186 7.35977 13.07C7.36973 13.1195 7.36973 13.1705 7.35977 13.22L7.08977 13.75C6.71793 14.437 6.40997 15.1567 6.16977 15.9L5.99977 16.44C5.98466 16.4947 5.95388 16.5437 5.91122 16.581C5.86857 16.6183 5.81591 16.6423 5.75977 16.65L1.75977 17.5V22.69L5.75977 23.48C5.81596 23.4936 5.86843 23.5194 5.9134 23.5558C5.95837 23.5921 5.9947 23.6379 6.01977 23.69L6.19977 24.28C6.45346 24.994 6.75756 25.6891 7.10977 26.36L7.39977 26.9C7.40978 26.9462 7.40978 26.9939 7.39977 27.04C7.40132 27.1052 7.3801 27.1688 7.33977 27.22L4.99977 30.67L8.63977 34.33L12.2398 31.93C12.2861 31.9007 12.3399 31.8851 12.3948 31.8851C12.4496 31.8851 12.5034 31.9007 12.5498 31.93L13.0798 32.19C13.6973 32.5104 14.3393 32.7813 14.9998 33L15.5798 33.19C15.6343 33.2039 15.6839 33.2328 15.7228 33.2734C15.7617 33.3141 15.7884 33.3649 15.7998 33.42L16.6598 37.69H21.8498L22.7098 33.42C22.719 33.3482 22.753 33.282 22.806 33.2326C22.859 33.1833 22.9275 33.1541 22.9998 33.15V33.15ZM13.2398 20.07C13.2398 18.8695 13.5958 17.6959 14.2627 16.6977C14.9297 15.6995 15.8777 14.9215 16.9869 14.4621C18.096 14.0027 19.3165 13.8825 20.494 14.1167C21.6714 14.3509 22.753 14.929 23.6019 15.7779C24.4508 16.6268 25.0289 17.7084 25.2631 18.8858C25.4973 20.0633 25.3771 21.2838 24.9177 22.3929C24.4583 23.5021 23.6803 24.4501 22.6821 25.117C21.6839 25.784 20.5103 26.14 19.3098 26.14C17.6999 26.14 16.156 25.5005 15.0176 24.3622C13.8793 23.2238 13.2398 21.6799 13.2398 20.07V20.07Z" stroke="#B4C6DE" stroke-width="2.25" stroke-linecap="round" stroke-linejoin="round"/>
</svg>
