<svg width="40" height="40" viewBox="0 0 40 40" fill="none" xmlns="http://www.w3.org/2000/svg">
<path d="M17.06 22.56C17.776 23.2949 18.7368 23.7415 19.7602 23.8152C20.7836 23.8889 21.7984 23.5845 22.6123 22.9598C23.4262 22.3351 23.9826 21.4334 24.176 20.4258C24.3694 19.4182 24.1863 18.3746 23.6615 17.4929C23.1367 16.6113 22.3067 15.9528 21.3287 15.6424C20.3508 15.332 19.2929 15.3912 18.3557 15.8088C17.4185 16.2264 16.6671 16.9734 16.244 17.9081C15.8209 18.8428 15.7554 19.9003 16.06 20.88C16.2555 21.5114 16.5983 22.0872 17.06 22.56Z" stroke="#B4C6DE" stroke-width="2.25" stroke-miterlimit="10"/>
<path d="M37.9992 8.18994H2.04922C1.89009 8.18994 1.73748 8.25316 1.62495 8.36568C1.51243 8.4782 1.44922 8.63081 1.44922 8.78994V30.3299C1.44922 30.4891 1.51243 30.6417 1.62495 30.7542C1.73748 30.8667 1.89009 30.9299 2.04922 30.9299H37.9992C38.078 30.9299 38.156 30.9144 38.2288 30.8843C38.3016 30.8541 38.3678 30.8099 38.4235 30.7542C38.4792 30.6985 38.5234 30.6323 38.5535 30.5596C38.5837 30.4868 38.5992 30.4087 38.5992 30.3299V8.78994C38.5992 8.71115 38.5837 8.63313 38.5535 8.56033C38.5234 8.48754 38.4792 8.42139 38.4235 8.36568C38.3678 8.30996 38.3016 8.26577 38.2288 8.23561C38.156 8.20546 38.078 8.18994 37.9992 8.18994V8.18994Z" stroke="#B4C6DE" stroke-width="2.25" stroke-miterlimit="10" stroke-linecap="round"/>
<path d="M6.61017 24.31C6.8912 24.31 7.16948 24.3654 7.42912 24.4729C7.68875 24.5805 7.92466 24.7381 8.12338 24.9368C8.3221 25.1356 8.47973 25.3715 8.58727 25.6311C8.69482 25.8907 8.75017 26.169 8.75017 26.45C8.73306 26.5904 8.77165 26.7318 8.85765 26.844C8.94366 26.9562 9.07022 27.0301 9.21017 27.05H30.7202C30.8616 27.0474 30.9964 26.9894 31.0956 26.8884C31.1947 26.7874 31.2502 26.6515 31.2502 26.51V26.44C31.2502 25.8725 31.4756 25.3282 31.877 24.9268C32.2783 24.5255 32.8226 24.3 33.3902 24.3C33.4598 24.3 33.5287 24.2863 33.593 24.2597C33.6573 24.2331 33.7157 24.194 33.7649 24.1448C33.8142 24.0956 33.8532 24.0372 33.8798 23.9729C33.9065 23.9086 33.9202 23.8396 33.9202 23.77V15.27C33.9202 15.1285 33.8647 14.9927 33.7656 14.8917C33.6664 14.7907 33.5316 14.7327 33.3902 14.73C32.8226 14.73 32.2783 14.5046 31.877 14.1033C31.4756 13.7019 31.2502 13.1576 31.2502 12.59C31.2502 12.4468 31.1933 12.3095 31.092 12.2082C30.9907 12.1069 30.8534 12.05 30.7102 12.05H9.29017C9.14696 12.05 9.0096 12.1069 8.90833 12.2082C8.80707 12.3095 8.75017 12.4468 8.75017 12.59C8.75017 12.8711 8.69482 13.1494 8.58727 13.409C8.47973 13.6686 8.3221 13.9045 8.12338 14.1033C7.92466 14.302 7.68875 14.4596 7.42912 14.5672C7.16948 14.6747 6.8912 14.73 6.61017 14.73C6.4687 14.7327 6.3339 14.7907 6.23478 14.8917C6.13567 14.9927 6.08015 15.1285 6.08017 15.27V23.77C6.07884 23.8405 6.09157 23.9105 6.11761 23.9759C6.14365 24.0414 6.18248 24.101 6.23183 24.1513C6.28117 24.2016 6.34005 24.2415 6.40501 24.2688C6.46998 24.296 6.53972 24.3101 6.61017 24.31V24.31Z" stroke="#B4C6DE" stroke-width="2.25" stroke-miterlimit="10"/>
</svg>
