<svg width="40" height="40" viewBox="0 0 40 40" fill="none" xmlns="http://www.w3.org/2000/svg">
<path d="M4.45062 11.7798H2.14062" stroke="#B4C6DE" stroke-width="2.25" stroke-linecap="round" stroke-linejoin="round"/>
<path d="M4.45062 15.04H2.14062" stroke="#B4C6DE" stroke-width="2.25" stroke-linecap="round" stroke-linejoin="round"/>
<path d="M4.45062 18.29H2.14062" stroke="#B4C6DE" stroke-width="2.25" stroke-linecap="round" stroke-linejoin="round"/>
<path d="M4.45062 21.5498H2.14062" stroke="#B4C6DE" stroke-width="2.25" stroke-linecap="round" stroke-linejoin="round"/>
<path d="M4.45062 24.8101H2.14062" stroke="#B4C6DE" stroke-width="2.25" stroke-linecap="round" stroke-linejoin="round"/>
<path d="M4.45062 28.0698H2.14062" stroke="#B4C6DE" stroke-width="2.25" stroke-linecap="round" stroke-linejoin="round"/>
<path d="M4.45062 31.3301H2.14062" stroke="#B4C6DE" stroke-width="2.25" stroke-linecap="round" stroke-linejoin="round"/>
<path d="M8.88086 35.6899V37.9999" stroke="#B4C6DE" stroke-width="2.25" stroke-linecap="round" stroke-linejoin="round"/>
<path d="M12.1406 35.6899V37.9999" stroke="#B4C6DE" stroke-width="2.25" stroke-linecap="round" stroke-linejoin="round"/>
<path d="M15.4004 35.6899V37.9999" stroke="#B4C6DE" stroke-width="2.25" stroke-linecap="round" stroke-linejoin="round"/>
<path d="M18.6504 35.6899V37.9999" stroke="#B4C6DE" stroke-width="2.25" stroke-linecap="round" stroke-linejoin="round"/>
<path d="M21.9102 35.6899V37.9999" stroke="#B4C6DE" stroke-width="2.25" stroke-linecap="round" stroke-linejoin="round"/>
<path d="M25.1699 35.6899V37.9999" stroke="#B4C6DE" stroke-width="2.25" stroke-linecap="round" stroke-linejoin="round"/>
<path d="M28.4297 35.6899V37.9999" stroke="#B4C6DE" stroke-width="2.25" stroke-linecap="round" stroke-linejoin="round"/>
<path d="M37.8606 38H2.14062V2.28003L37.8606 38Z" stroke="#B4C6DE" stroke-width="2.25" stroke-linecap="round" stroke-linejoin="round"/>
<path d="M24.7592 31.4499H8.69922V15.3799L24.7592 31.4499Z" stroke="#B4C6DE" stroke-width="2.25" stroke-linecap="round" stroke-linejoin="round"/>
<path d="M32.3362 27.0422L35.8223 23.5562L17.8405 5.57443L14.3545 9.06046L32.3362 27.0422Z" stroke="#B4C6DE" stroke-width="2.25" stroke-linecap="round" stroke-linejoin="round"/>
<path d="M37.2742 26.9538L35.7327 28.4953C35.4758 28.7523 35.1273 28.8966 34.764 28.8966C34.4006 28.8966 34.0522 28.7522 33.7952 28.4953L32.3457 27.0458L35.8317 23.5597L37.2813 25.0093C37.5382 25.2662 37.6825 25.6147 37.6825 25.978C37.6825 26.3414 37.5382 26.6898 37.2813 26.9468L37.2742 26.9538Z" stroke="#B4C6DE" stroke-width="2.25" stroke-linecap="round" stroke-linejoin="round"/>
<path d="M13.0195 4.23999L17.8495 5.57999L14.3595 9.05999L13.0195 4.23999Z" stroke="#B4C6DE" stroke-width="2.25" stroke-linecap="round" stroke-linejoin="round"/>
</svg>
