<svg width="40" height="40" viewBox="0 0 40 40" fill="none" xmlns="http://www.w3.org/2000/svg">
<path d="M4.08008 20.2399H14.0801L16.8701 14.9299L22.1901 25.8799L26.1201 19.5999H36.9701" stroke="#B4C6DE" stroke-width="2.25" stroke-linecap="round" stroke-linejoin="round"/>
<path d="M7.60939 24.75L11.0694 28.21L14.7894 31.92L17.8894 35.02L19.5094 36.65L19.5794 36.72C19.6894 36.8263 19.8364 36.8857 19.9894 36.8857C20.1424 36.8857 20.2894 36.8263 20.3994 36.72L21.8894 35.24L25.4494 31.68L29.7394 27.39L33.4394 23.68C34.0394 23.09 34.6494 22.51 35.2294 21.9H35.2794C36.9629 20.2503 38.0355 18.0772 38.321 15.7375C38.6066 13.3977 38.0881 11.0305 36.8506 9.02435C35.6132 7.01821 33.7305 5.49243 31.5115 4.69753C29.2925 3.90263 26.8692 3.88585 24.6394 4.64995C23.5307 5.01922 22.4927 5.57374 21.5694 6.28995C21.0131 6.73637 20.4885 7.22087 19.9994 7.73995C19.5894 7.31995 19.1794 6.90995 18.7394 6.53995C17.0227 5.10117 14.887 4.25569 12.6506 4.12955C10.4143 4.0034 8.19701 4.60335 6.32939 5.83995C4.04337 7.35217 2.44749 9.70644 1.88939 12.39C1.63952 13.6493 1.61919 14.9434 1.82939 16.21" stroke="#B4C6DE" stroke-width="2.25" stroke-linecap="round" stroke-linejoin="round"/>
</svg>
