<svg width="40" height="40" viewBox="0 0 40 40" fill="none" xmlns="http://www.w3.org/2000/svg">
<path d="M21.8493 19.96H7.2793V26.4H21.8493V19.96Z" stroke="#B4C6DE" stroke-width="2.25" stroke-linecap="round" stroke-linejoin="round"/>
<path d="M26.4609 31.48V19.96H32.7609V31.48" stroke="#B4C6DE" stroke-width="2.25" stroke-linecap="round" stroke-linejoin="round"/>
<path d="M38.6406 31.49H1.39062V35.29H38.6406V31.49Z" stroke="#B4C6DE" stroke-width="2.25" stroke-linecap="round" stroke-linejoin="round"/>
<path d="M36.5792 15.6499V31.4799H3.44922V15.6499" stroke="#B4C6DE" stroke-width="2.25" stroke-linecap="round" stroke-linejoin="round"/>
<path d="M37.8209 12.4101H2.21094L5.59094 5.11011H34.4409L37.8209 12.4101Z" stroke="#B4C6DE" stroke-width="2.25" stroke-linecap="round" stroke-linejoin="round"/>
<path d="M7.13922 12.46C7.13922 14.46 6.02922 16.14 4.66922 16.14C3.30922 16.14 2.19922 14.48 2.19922 12.46" stroke="#B4C6DE" stroke-width="2.25" stroke-linecap="round" stroke-linejoin="round"/>
<path d="M12.4302 12.46C12.4302 14.46 11.3202 16.14 9.96023 16.14C8.60023 16.14 7.49023 14.48 7.49023 12.46" stroke="#B4C6DE" stroke-width="2.25" stroke-linecap="round" stroke-linejoin="round"/>
<path d="M17.3697 12.46C17.3697 14.46 16.2597 16.14 14.8997 16.14C13.5397 16.14 12.4297 14.48 12.4297 12.46" stroke="#B4C6DE" stroke-width="2.25" stroke-linecap="round" stroke-linejoin="round"/>
<path d="M22.6607 12.46C22.6607 14.46 21.5507 16.14 20.1907 16.14C18.8307 16.14 17.7207 14.48 17.7207 12.46" stroke="#B4C6DE" stroke-width="2.25" stroke-linecap="round" stroke-linejoin="round"/>
<path d="M27.6002 12.46C27.6002 14.46 26.4902 16.14 25.1302 16.14C23.7702 16.14 22.6602 14.48 22.6602 12.46" stroke="#B4C6DE" stroke-width="2.25" stroke-linecap="round" stroke-linejoin="round"/>
<path d="M32.8892 12.46C32.8892 14.46 31.7692 16.14 30.4192 16.14C29.0592 16.14 27.9492 14.48 27.9492 12.46" stroke="#B4C6DE" stroke-width="2.25" stroke-linecap="round" stroke-linejoin="round"/>
<path d="M37.8206 12.46C37.8206 14.46 36.7106 16.14 35.3506 16.14C34.0006 16.14 32.8906 14.48 32.8906 12.46" stroke="#B4C6DE" stroke-width="2.25" stroke-linecap="round" stroke-linejoin="round"/>
</svg>
