<svg width="40" height="40" viewBox="0 0 40 40" fill="none" xmlns="http://www.w3.org/2000/svg">
<path d="M4.59961 25.15V8.75996C4.59961 8.34888 4.76291 7.95463 5.05359 7.66395C5.34428 7.37326 5.73852 7.20996 6.14961 7.20996H33.3796C33.7907 7.20996 34.1849 7.37326 34.4756 7.66395C34.7663 7.95463 34.9296 8.34888 34.9296 8.75996V25.15" stroke="#B4C6DE" stroke-width="2.25" stroke-linecap="round" stroke-linejoin="round"/>
<path d="M8.0293 25.1501V10.5601H31.4093V25.1501" stroke="#B4C6DE" stroke-width="2.25" stroke-linecap="round" stroke-linejoin="round"/>
<path d="M24.1301 25.1499L23.0001 26.9999H16.8101L15.6601 25.1099H2.00014C1.99485 25.8739 2.14111 26.6315 2.43046 27.3387C2.71982 28.0459 3.14652 28.6887 3.68589 29.2299C4.22527 29.7712 4.8666 30.2001 5.5728 30.4919C6.279 30.7837 7.03604 30.9325 7.80014 30.9299H32.0001C33.5331 30.9299 35.0033 30.3209 36.0872 29.2369C37.1712 28.153 37.7801 26.6828 37.7801 25.1499H24.1301Z" stroke="#B4C6DE" stroke-width="2.25" stroke-linecap="round" stroke-linejoin="round"/>
</svg>
