<svg width="40" height="40" viewBox="0 0 40 40" fill="none" xmlns="http://www.w3.org/2000/svg">
<path d="M4.88928 37.17H35.1093C35.5591 37.1737 36.005 37.0872 36.4207 36.9154C36.8364 36.7436 37.2134 36.4901 37.5293 36.17C37.8479 35.8509 38.1004 35.4719 38.272 35.0548C38.4436 34.6378 38.531 34.1909 38.5293 33.74V6.25997C38.531 5.809 38.4436 5.36213 38.272 4.94509C38.1004 4.52805 37.8479 4.14907 37.5293 3.82997C37.2134 3.50979 36.8364 3.2563 36.4207 3.08453C36.005 2.91275 35.5591 2.82619 35.1093 2.82997H4.88928C4.43726 2.82598 3.98897 2.91191 3.57046 3.08275C3.15196 3.25358 2.7716 3.50592 2.4515 3.82509C2.1314 4.14426 1.87795 4.52389 1.70589 4.94189C1.53384 5.3599 1.44661 5.80794 1.44928 6.25997V33.74C1.44661 34.192 1.53384 34.64 1.70589 35.058C1.87795 35.476 2.1314 35.8557 2.4515 36.1748C2.7716 36.494 3.15196 36.7463 3.57046 36.9172C3.98897 37.088 4.43726 37.1739 4.88928 37.17Z" stroke="#B4C6DE" stroke-width="2.25" stroke-miterlimit="10"/>
<path d="M25.3301 6.33008H28.0801" stroke="#B4C6DE" stroke-width="2.25" stroke-linecap="round" stroke-linejoin="round"/>
<path d="M30.8691 6.33008H34.6791" stroke="#B4C6DE" stroke-width="2.25" stroke-linecap="round" stroke-linejoin="round"/>
<path d="M1.44922 9.69995H38.5492" stroke="#B4C6DE" stroke-width="2.25" stroke-miterlimit="10"/>
<path d="M16.8902 14.6201H5.49023V23.4101H16.8902V14.6201Z" stroke="#B4C6DE" stroke-width="2.25" stroke-linecap="round" stroke-linejoin="round"/>
<path d="M34.5094 14.6201H23.1094V23.4101H34.5094V14.6201Z" stroke="#B4C6DE" stroke-width="2.25" stroke-linecap="round" stroke-linejoin="round"/>
<path d="M5.49023 27.0601H16.8902" stroke="#B4C6DE" stroke-width="2.25" stroke-linecap="round" stroke-linejoin="round"/>
<path d="M23.1094 27.0601H34.5094" stroke="#B4C6DE" stroke-width="2.25" stroke-linecap="round" stroke-linejoin="round"/>
<path d="M5.49023 30.73H16.8902" stroke="#B4C6DE" stroke-width="2.25" stroke-linecap="round" stroke-linejoin="round"/>
<path d="M23.1094 30.73H34.5094" stroke="#B4C6DE" stroke-width="2.25" stroke-linecap="round" stroke-linejoin="round"/>
</svg>
