<svg width="21" height="21" viewBox="0 0 21 21" fill="none" xmlns="http://www.w3.org/2000/svg">
<path d="M1.20313 9.5C1.00534 9.5 0.812005 9.55865 0.647555 9.66853C0.483106 9.77841 0.354934 9.93459 0.279246 10.1173C0.203558 10.3 0.183755 10.5011 0.22234 10.6951C0.260925 10.8891 0.356166 11.0673 0.496019 11.2071C0.635871 11.347 0.814054 11.4422 1.00804 11.4808C1.20202 11.5194 1.40308 11.4996 1.58581 11.4239C1.76854 11.3482 1.92471 11.22 2.0346 11.0556C2.14448 10.8911 2.20313 10.6978 2.20313 10.5C2.20313 10.2348 2.09777 9.98043 1.91023 9.79289C1.7227 9.60536 1.46834 9.5 1.20313 9.5ZM3.13313 16.16C2.99268 16.2996 2.89685 16.4778 2.85778 16.6719C2.81871 16.8661 2.83817 17.0674 2.91368 17.2505C2.98919 17.4336 3.11736 17.5901 3.28194 17.7003C3.44652 17.8104 3.64009 17.8692 3.83813 17.8692C4.03616 17.8692 4.22974 17.8104 4.39431 17.7003C4.55889 17.5901 4.68706 17.4336 4.76257 17.2505C4.83809 17.0674 4.85754 16.8661 4.81847 16.6719C4.77941 16.4778 4.68357 16.2996 4.54313 16.16C4.35576 15.9738 4.10231 15.8692 3.83813 15.8692C3.57394 15.8692 3.32049 15.9738 3.13313 16.16ZM4.54313 4.84C4.68357 4.70039 4.77941 4.52221 4.81847 4.32807C4.85754 4.13393 4.83809 3.93256 4.76257 3.74948C4.68706 3.56641 4.55889 3.40988 4.39431 3.29974C4.22974 3.18959 4.03616 3.13079 3.83813 3.13079C3.64009 3.13079 3.44652 3.18959 3.28194 3.29974C3.11736 3.40988 2.98919 3.56641 2.91368 3.74948C2.83817 3.93256 2.81871 4.13393 2.85778 4.32807C2.89685 4.52221 2.99268 4.70039 3.13313 4.84C3.32049 5.02625 3.57394 5.13079 3.83813 5.13079C4.10231 5.13079 4.35576 5.02625 4.54313 4.84ZM10.2031 2.5C10.4009 2.5 10.5942 2.44135 10.7587 2.33147C10.9231 2.22159 11.0513 2.06541 11.127 1.88268C11.2027 1.69996 11.2225 1.49889 11.1839 1.30491C11.1453 1.11093 11.0501 0.932746 10.9102 0.792894C10.7704 0.653041 10.5922 0.5578 10.3982 0.519215C10.2042 0.48063 10.0032 0.500433 9.82044 0.576121C9.63772 0.651809 9.48154 0.779981 9.37166 0.94443C9.26178 1.10888 9.20313 1.30222 9.20313 1.5C9.20313 1.76522 9.30848 2.01957 9.49602 2.20711C9.68356 2.39464 9.93791 2.5 10.2031 2.5ZM15.8631 16.16C15.7227 16.2996 15.6268 16.4778 15.5878 16.6719C15.5487 16.8661 15.5682 17.0674 15.6437 17.2505C15.7192 17.4336 15.8474 17.5901 16.0119 17.7003C16.1765 17.8104 16.3701 17.8692 16.5681 17.8692C16.7662 17.8692 16.9597 17.8104 17.1243 17.7003C17.2889 17.5901 17.4171 17.4336 17.4926 17.2505C17.5681 17.0674 17.5875 16.8661 17.5485 16.6719C17.5094 16.4778 17.4136 16.2996 17.2731 16.16C17.0858 15.9738 16.8323 15.8692 16.5681 15.8692C16.3039 15.8692 16.0505 15.9738 15.8631 16.16ZM19.2031 9.5C19.0053 9.5 18.812 9.55865 18.6476 9.66853C18.4831 9.77841 18.3549 9.93459 18.2792 10.1173C18.2036 10.3 18.1838 10.5011 18.2223 10.6951C18.2609 10.8891 18.3562 11.0673 18.496 11.2071C18.6359 11.347 18.8141 11.4422 19.008 11.4808C19.202 11.5194 19.4031 11.4996 19.5858 11.4239C19.7685 11.3482 19.9247 11.22 20.0346 11.0556C20.1445 10.8911 20.2031 10.6978 20.2031 10.5C20.2031 10.2348 20.0978 9.98043 19.9102 9.79289C19.7227 9.60536 19.4683 9.5 19.2031 9.5ZM15.8631 3.43C15.7227 3.56961 15.6268 3.74779 15.5878 3.94193C15.5487 4.13607 15.5682 4.33744 15.6437 4.52052C15.7192 4.70359 15.8474 4.86012 16.0119 4.97026C16.1765 5.08041 16.3701 5.13921 16.5681 5.13921C16.7662 5.13921 16.9597 5.08041 17.1243 4.97026C17.2889 4.86012 17.4171 4.70359 17.4926 4.52052C17.5681 4.33744 17.5875 4.13607 17.5485 3.94193C17.5094 3.74779 17.4136 3.56961 17.2731 3.43C17.0858 3.24375 16.8323 3.13921 16.5681 3.13921C16.3039 3.13921 16.0505 3.24375 15.8631 3.43ZM10.2031 18.5C10.0053 18.5 9.812 18.5586 9.64756 18.6685C9.48311 18.7784 9.35493 18.9346 9.27925 19.1173C9.20356 19.3 9.18375 19.5011 9.22234 19.6951C9.26093 19.8891 9.35617 20.0673 9.49602 20.2071C9.63587 20.347 9.81405 20.4422 10.008 20.4808C10.202 20.5194 10.4031 20.4996 10.5858 20.4239C10.7685 20.3482 10.9247 20.22 11.0346 20.0556C11.1445 19.8911 11.2031 19.6978 11.2031 19.5C11.2031 19.2348 11.0978 18.9804 10.9102 18.7929C10.7227 18.6054 10.4683 18.5 10.2031 18.5ZM10.2031 4.5C9.01644 4.5 7.8564 4.85189 6.8697 5.51118C5.88301 6.17047 5.11397 7.10754 4.65985 8.2039C4.20572 9.30026 4.0869 10.5067 4.31841 11.6705C4.54992 12.8344 5.12137 13.9035 5.96048 14.7426C6.7996 15.5818 7.8687 16.1532 9.03258 16.3847C10.1965 16.6162 11.4029 16.4974 12.4992 16.0433C13.5956 15.5892 14.5327 14.8201 15.1919 13.8334C15.8512 12.8467 16.2031 11.6867 16.2031 10.5C16.2031 8.9087 15.571 7.38258 14.4458 6.25736C13.3205 5.13214 11.7944 4.5 10.2031 4.5ZM10.2031 14.5C9.412 14.5 8.63864 14.2654 7.98084 13.8259C7.32305 13.3864 6.81036 12.7616 6.50761 12.0307C6.20486 11.2998 6.12564 10.4956 6.27998 9.71964C6.43432 8.94372 6.81529 8.23098 7.3747 7.67157C7.93411 7.11216 8.64684 6.7312 9.42276 6.57686C10.1987 6.42252 11.003 6.50173 11.7339 6.80448C12.4648 7.10723 13.0895 7.61992 13.529 8.27772C13.9685 8.93552 14.2031 9.70888 14.2031 10.5C14.2031 11.5609 13.7817 12.5783 13.0316 13.3284C12.2814 14.0786 11.264 14.5 10.2031 14.5Z" fill="#FFB201"/>
</svg>
